<svg width="24" height="24" viewBox="0 0 24 24" fill="none" xmlns="http://www.w3.org/2000/svg">
<path d="M19 3H5C3.895 3 3 3.895 3 5V19C3 20.105 3.895 21 5 21H10.419C10.464 21 10.5 20.964 10.5 20.919V14.96C10.5 14.915 10.464 14.879 10.419 14.879H8.08C8.035 14.879 7.999 14.843 7.999 14.798V12.079C7.999 12.034 8.035 11.998 8.08 11.998H10.419C10.464 11.998 10.5 11.962 10.5 11.917V9.803C10.5 7.498 11.636 6.223 13.567 6.017C13.779 5.994 13.993 5.991 14.206 6.008C14.93 6.018 15.715 6.079 16.43 6.191C16.47 6.197 16.499 6.232 16.499 6.272V8.497H15.18C14.499 8.497 13.499 8.997 13.499 10.048V11.917C13.499 11.962 13.534 11.998 13.579 11.998H16.167C16.216 11.998 16.254 12.042 16.247 12.091L15.83 14.81C15.824 14.849 15.79 14.878 15.75 14.878H13.579C13.534 14.878 13.498 14.914 13.498 14.959V20.918C13.498 20.963 13.534 20.999 13.579 20.999H18.999C20.104 20.999 20.999 20.104 20.999 18.999V5C20.999 3.895 20.104 3 18.999 3H19Z" fill="#505759"/>
</svg>
