<svg width="24" height="24" viewBox="0 0 24 24" fill="none" xmlns="http://www.w3.org/2000/svg">
<path d="M12.33 8.99999C10.676 8.99999 9.33003 10.346 9.33003 12C9.33003 13.654 10.679 15 12.33 15C13.981 15 15.331 13.654 15.331 12C15.331 10.346 13.985 8.99999 12.33 8.99999Z" fill="#505759"/>
<path d="M21.267 8.28899C21.199 6.84699 20.869 5.56999 19.814 4.51699C18.761 3.46499 17.484 3.13599 16.042 3.06399C14.556 2.97899 10.101 2.97899 8.61503 3.06399C7.17803 3.13199 5.90003 3.46099 4.84303 4.51399C3.78703 5.56599 3.46203 6.84399 3.39003 8.28599C3.30603 9.77199 3.30603 14.226 3.39003 15.712C3.45803 17.154 3.78803 18.431 4.84303 19.484C5.90003 20.536 7.17303 20.865 8.61503 20.938C10.101 21.022 14.556 21.022 16.042 20.938C17.484 20.87 18.761 20.54 19.814 19.484C20.866 18.432 21.196 17.154 21.267 15.712C21.351 14.226 21.351 9.77599 21.267 8.28999V8.28899ZM12.33 16.615C9.77603 16.615 7.71503 14.555 7.71503 12C7.71503 9.44499 9.77603 7.38499 12.33 7.38499C14.884 7.38499 16.945 9.44499 16.945 12C16.945 14.555 14.884 16.615 12.33 16.615ZM17.134 8.27299C16.537 8.27299 16.058 7.79099 16.058 7.19699C16.058 6.60299 16.54 6.12099 17.134 6.12099C17.728 6.12099 18.211 6.60299 18.211 7.19699C18.211 7.79599 17.729 8.27299 17.134 8.27299Z" fill="#505759"/>
</svg>
