<svg width="24" height="24" viewBox="0 0 24 24" fill="none" xmlns="http://www.w3.org/2000/svg">
<path d="M5.921 7.86098C6.984 7.84798 7.839 6.98398 7.841 5.92198C7.841 5.23598 7.475 4.60098 6.881 4.25798C6.589 4.08998 6.258 4.00098 5.921 4.00098C4.86 4.00098 4 4.86098 4 5.92198C4.002 6.98498 4.858 7.84998 5.921 7.86098Z" fill="#505759"/>
<path d="M4.267 9.31798H7.581V20H4.267V9.31798Z" fill="#505759"/>
<path d="M12.887 10.775H12.841V9.31798H9.658V20H12.972V14.714C12.972 13.317 13.236 11.971 14.961 11.971C16.66 11.971 16.686 13.561 16.686 14.8V20H20V14.133C20 11.261 19.383 9.05098 16.025 9.05098C14.741 9.00398 13.535 9.66598 12.887 10.776V10.775Z" fill="#505759"/>
</svg>
