<svg width="24" height="24" viewBox="0 0 24 24" fill="none" xmlns="http://www.w3.org/2000/svg">
<path d="M19.8129 5.39004C17.2209 5.07804 14.6099 4.93804 11.9999 4.96904C9.38894 4.93704 6.77894 5.07804 4.18694 5.39004C3.32194 5.62504 2.64794 6.30404 2.41894 7.17004C2.13094 8.76804 1.99094 10.39 2.00194 12.014C1.99194 13.639 2.13094 15.261 2.41894 16.859C2.65094 17.718 3.32594 18.386 4.18694 18.61C6.77894 18.922 9.38994 19.062 11.9999 19.031C14.6109 19.063 17.2209 18.922 19.8129 18.61C20.6739 18.387 21.3489 17.718 21.5809 16.859C21.8689 15.26 22.0089 13.638 21.9989 12.014C22.0089 10.39 21.8689 8.76804 21.5809 7.17004C21.3509 6.30404 20.6769 5.62604 19.8129 5.39004ZM9.95494 14.988V9.04104L15.1819 12.015L9.95494 14.988Z" fill="#505759"/>
</svg>
